<?xml version="1.0" encoding="utf-8"?>
<!-- Generator: Adobe Illustrator 19.2.1, SVG Export Plug-In . SVG Version: 6.00 Build 0)  -->
<svg version="1.1" id="Layer_1" xmlns="http://www.w3.org/2000/svg" xmlns:xlink="http://www.w3.org/1999/xlink" x="0px" y="0px"
	 viewBox="0 0 102.4 69" style="enable-background:new 0 0 102.4 69;" xml:space="preserve">
<style type="text/css">
	.st0{enable-background:new    ;}
	.st1{fill:#156734;}
</style>
<g class="st0">
	<path class="st1" d="M50.6,35.2l-1,0.1l-0.1,0.5l0.2,1.4l-0.4,0.3v0.3c0,0.3-0.1,0.7-0.4,1.2c-0.2,0.5-0.4,0.8-0.4,1.1l0.2,1.4v0.4
		l0.3,1.3l-0.8,1.4V45v1v1.5l-0.6,0.7l0.6,0.6l-1.2,1v1.4l-0.4,0.4l0.2,1L46.3,53v0.2L45.7,54L45,54.2v1.9l-1.2,0.7
		c-0.8,1.5-1.4,2.6-1.8,3.2l-3.5,2.3l-1.4,0.7L35.9,64l-0.6-0.1l-2.2,0.8l-2.2-0.2l-2.6,1.1l-2.4-0.7L24.2,65L23.9,65l-1.5,1.2
		l-1.1-1.4l-0.6,0.1l-1.9-0.6L16.1,65l-0.5-1.4l-2.4,0.2l-0.9-1.1h-1.9v-0.3l-1.1-0.5H8.5C7.5,61.4,7,60.4,7,59
		c0-0.6,0.7-0.9,2.2-0.9s3.1,0.4,4.9,1.3c1.2,0,2.4,0.2,3.5,0.6l0.6,0.1h1.2l0.5,0.4l1.8-0.2l1.6,0.4l0.5-0.1l1.2,0.4l0.9-0.3
		c2.1,0,3.4-0.1,4-0.2h2.4l0.4-0.9h1.3l0.4-0.6h0.9l0.6-0.4l0.4-0.1l0.5-0.4l1-0.9l0.4-1.4l1.1-0.4l0.3-1.4l1-0.7
		c0-0.5,0-0.9,0.1-1.2l0.2-0.2l-0.5-0.7l0.9-0.9L41,49.4c0.2-0.2,0.5-0.6,1-1.2l0.3-1.4v-2.7h0.7l0.1-1v-0.3l0.4-0.1l-0.7-2.2
		l0.4-0.1l0.6-1.7l-0.1-1l0.5-5.8l0.4-1.2l-0.4-2.4l0.4-0.9l-0.5-0.7l0.5-2l-0.9-2.8l0-3.2L43,16.9l0.1-0.4l-0.8-0.1
		c0.4-5,1.8-7.5,4-7.5c1.1,0,1.8,0.4,2.1,1.2l0.2,0.4l1.4,0.9l-0.7,1.3l0.5,0.7l-0.1,0.9l0.4,0.2v1.5l0.5,1.2L50,19.8l0.3,3.6v1.1
		v3.2L50,29.2l0.3,2.2v0.5v1.4l-0.6,0.6l0.1,0.2L50.6,35.2z"/>
	<path class="st1" d="M98.1,22.5l-0.7,2.2l-1.3,1.2v0.9c-0.4,0.1-0.9,0.3-1.4,0.5l-0.2,0.1c-0.2,0.6-0.6,1-1.2,1
		c-0.6,0.6-1.6,1.1-3.1,1.4c-0.7,0.8-1.5,1.2-2.3,1.3l-1,0.5h-1.4l-0.8,0.5l-0.4,0.1c-0.2,0.2-0.5,0.4-0.9,0.5l-0.8,0.6H81L80.1,34
		L77,34.7c-0.3,0-0.9,0-1.7,0.1L73.8,36c-0.4-0.2-0.9-0.3-1.3-0.3h-0.4L71.6,36l-0.9,0.2L70,36.6l-0.5,0.1l0.8,1.3l-0.5,1.8l0.6,2.4
		v1.6l0.3,0.6c1,0.1,1.5,0.8,1.5,1.9c0,1.1-0.9,1.9-2.7,2.5l-2,0.6l-2.2-2.7l-0.9-3v-2.7l-1-1.8l0.7-0.8l-0.2-0.9l0.1-0.6
		c-1.3-0.1-2.3-0.2-2.9-0.4l-2.4-3.5l5.4-0.4v-0.7l0.4-0.9l0.3-3l0.4-0.4l-0.2-2.7l0.2-1.2v-3.9l0.9-1.7l0.2-0.1l-0.1-0.2
		c0.2-0.6,0.6-1.1,1.2-1.4l1.6-0.1h0.5c2.1,0,3.1,0.8,3.1,2.3c0,0.6-0.3,1.5-1,2.6v0.4c0,0.7,0.3,1.5,1,2.2l-1,0.3v1.8l-1.1,0.7
		l0.4,1L70.1,29l0.2,1.4l-0.2,0.7l0.1,0.7l0.5-0.3h1.4c0.7-0.5,1.5-0.8,2.4-0.9l1-0.9c0.3,0.3,0.6,0.6,0.9,0.6
		c0.5-0.2,1.4-0.6,2.7-1.2l0.9-0.1l1.2-0.7h0.6l0.1-0.1h0.5c1,0,1.8-0.3,2.6-0.9h1.6l0.1-0.4l1-0.4l0.5-0.6c0.2,0,0.4,0.1,0.7,0.1
		l0.6-1.2c0.2-0.2,0.4-0.3,0.6-0.3c0.1,0,0.2,0.1,0.3,0.3c0.1-0.2,0.5-0.5,1-0.6l0.1-0.4l0.5-0.4l0.1-0.6l-0.4-0.9l-0.6-0.6
		l-0.6-0.1l-1.4-1.2l-2.7-1c-1.2-0.7-2.3-1.3-3.3-1.7l-1.2,0.7l-2-1.2l-1.7,0.1l-1.1-0.6h-1.1l-1-0.6c0,0-0.1,0-0.3,0
		c-0.1,0-0.3,0.1-0.4,0.1c-0.6,0-1.2-0.2-1.8-0.6L71,14.8L69.7,15l-1.4-0.4l-1.5,0.4l-0.2-0.1l-1.1,0.4l-0.9-0.3v0.3h-1.7l-1.3,0.7
		l-1.5,0.2l-1.9,1l-1.3-1.8c-0.6-0.8-0.9-1.8-0.9-2.9l0.8-0.9c0.2-0.8,0.7-1.3,1.6-1.6c0.9-0.2,1.8-0.4,2.7-0.7c0.2,0,0.4,0,0.6,0
		l0.3,0.1l0.5,0.1l-0.2,0.3l1.5-0.4h0.2c0.1,0,0.4,0,0.6,0c0.4,0,0.9,0.1,1.4,0.4h2.9L71,9.8l4,0.6l1.1,0.8l1-0.3l1.9,0.5h2.2
		l0.3,0.4h1.5l1.7,1l1.6,0.1l0.4,0.5c0.9,0,1.7,0.3,2.6,0.9l1.4-0.3l0.6,1.4l0.8,0.6h1.2l0.9,1.4l2.7,1.6v1.1L98.1,22.5z"/>
</g>
</svg>
